<svg width="600" height="61" viewBox="0 0 600 61" fill="none" xmlns="http://www.w3.org/2000/svg">
<path d="M0.617188 9.58301V52.0627L13.5385 37.1992H4.2158V13.1816H19.0976V52.6087H13.718L20.8933 60.865L28.0685 52.6087H22.6889V13.178H37.5707V37.1956H28.248L41.1693 52.059V9.58301H0.617188Z" fill="white"/>
<path d="M39.3739 0.86499H2.41309V4.4636H39.3739V0.86499Z" fill="white"/>
<path d="M72.7581 25.7439H66.6823V37.7233H64.8866L64.905 25.7439H58.8291V23.9885H72.7545V25.7439H72.7581Z" fill="white"/>
<path d="M66.7224 37.7634H64.8461V37.7231L64.8644 25.7876H58.7886V23.948H72.7982V25.7876H66.7224V37.7634ZM64.9304 37.6791H66.6417V25.6997H72.7176V24.0286H58.8729V25.6997H64.9487V25.74L64.9304 37.6791Z" fill="white"/>
<path d="M95.6909 31.4897H85.4485V37.7194H83.6528V23.9846H85.4485V29.7343H95.6909V23.9846H97.4866V37.7194H95.6909V31.4897Z" fill="white"/>
<path d="M97.5269 37.7634H95.6507V31.5337H85.4925V37.7634H83.6162V23.948H85.4925V29.6977H95.6507V23.948H97.5269V37.7634ZM95.7349 37.6791H97.4463V24.0286H95.7349V29.7783H85.4082V24.0286H83.6968V37.6791H85.4082V31.4494H95.7349V37.6791Z" fill="white"/>
<path d="M110.199 25.7622V29.7346H118.668V31.4899H110.199V35.9643H121.292V37.7197H108.407V24.0068H121.31V25.7622H110.199Z" fill="white"/>
<path d="M121.332 37.7637H108.363V23.9666H121.35V25.8062H110.239V29.6979H118.708V31.5376H110.239V35.9277H121.332V37.7637ZM108.447 37.6794H121.247V36.0083H110.155V31.4496H118.624V29.7786H110.155V25.7219H121.266V24.0508H108.443V37.6794H108.447Z" fill="white"/>
<path d="M156.241 35.6015L151.07 27.7887V37.7233H149.256V23.9885H150.762L156.856 33.3258L162.873 23.9885H164.303V37.7233H162.529V27.7887L157.494 35.6382L156.241 35.6015Z" fill="white"/>
<path d="M164.343 37.7634H162.485V27.9314L157.516 35.682L156.219 35.6416L156.208 35.6233L151.114 27.9277V37.7634H149.216V23.948H150.784L150.795 23.9663L156.856 33.2487L162.852 23.948H164.343V37.7634ZM162.57 37.6791H164.259V24.0286H162.896L156.856 33.3989L156.82 33.344L150.737 24.0286H149.296V37.6791H151.026V27.6492L151.103 27.7665L156.259 35.561L157.468 35.5977L162.566 27.6455V37.6791H162.57Z" fill="white"/>
<path d="M179.983 33.0363L177.283 37.7233H175.238L183.186 24.0105L191.153 37.7233H189.09L186.371 33.0363H179.983ZM183.186 27.4992L180.947 31.3763L185.403 31.358L183.186 27.4992Z" fill="white"/>
<path d="M191.227 37.7634H189.065L189.054 37.7415L186.345 33.0764H180.009L177.309 37.7634H175.168L175.205 37.7011L183.187 23.926L183.223 23.9883L191.227 37.7634ZM189.112 37.6791H191.08L183.187 24.0909L175.311 37.6791H177.261L179.962 32.9922H186.393L186.404 33.0142L189.112 37.6791ZM180.878 31.4164L180.915 31.3541L183.187 27.4147L183.223 27.477L185.477 31.3981L180.878 31.4164ZM183.187 27.5833L181.021 31.3358L185.334 31.3175L183.187 27.5833Z" fill="white"/>
<path d="M203.865 26.8432L203.847 37.7233H202.073V23.9885H203.462L214.111 34.8686V23.9885H215.907V37.7233H214.5L203.865 26.8432Z" fill="white"/>
<path d="M215.944 37.7634H214.478L214.467 37.7524L203.909 26.9456L203.891 37.7634H202.033V23.948H203.481L203.492 23.959L214.068 34.7658V23.948H215.944V37.7634ZM214.511 37.6791H215.86V24.0286H214.148V34.9674L214.075 34.8941L203.44 24.0286H202.11V37.6791H203.8L203.818 26.7404L203.887 26.8137L214.511 37.6791Z" fill="white"/>
<path d="M233.281 23.9885C235.788 23.9885 238.217 24.6042 239.606 26.3412C240.647 27.6348 240.936 29.4084 240.936 30.8743C240.936 34.8467 238.987 37.7233 233.278 37.7233H226.817V23.9885H233.281ZM233.281 35.9863C235.154 35.9863 237.158 35.6016 238.162 34.3483C238.954 33.3845 239.108 31.9956 239.108 30.8559C239.108 29.7162 238.954 28.3274 238.162 27.3856C237.158 26.114 235.154 25.7255 233.281 25.7255H228.613V35.9863H233.281Z" fill="white"/>
<path d="M233.281 37.7634H226.776V23.948H233.281C235.318 23.948 238.074 24.3584 239.639 26.3153C240.746 27.6895 240.98 29.5548 240.98 30.874C240.98 35.4438 238.389 37.7634 233.281 37.7634ZM226.861 37.6791H233.281C238.334 37.6791 240.896 35.3888 240.896 30.874C240.896 29.5658 240.665 27.7225 239.573 26.3666C238.027 24.4354 235.296 24.0286 233.277 24.0286H226.857V37.6791H226.861ZM233.281 36.0264H228.572V25.6813H233.281C234.919 25.6813 237.103 25.9708 238.195 27.356C238.836 28.1219 239.148 29.2689 239.148 30.8557C239.148 32.4388 238.836 33.5895 238.195 34.3737C237.099 35.7406 234.919 36.0264 233.281 36.0264ZM228.653 35.9421H233.277C234.897 35.9421 237.052 35.66 238.126 34.3187C238.756 33.5492 239.06 32.4168 239.06 30.852C239.06 29.2873 238.752 28.1586 238.126 27.4074C237.055 26.0478 234.897 25.762 233.277 25.762H228.653V35.9421Z" fill="white"/>
<path d="M256.58 33.0363L253.879 37.7233H251.834L259.783 24.0105L267.75 37.7233H265.687L262.967 33.0363H256.58ZM259.783 27.4992L257.544 31.3763L262 31.358L259.783 27.4992Z" fill="white"/>
<path d="M267.823 37.7634H265.661L265.65 37.7415L262.942 33.0764H256.606L253.905 37.7634H251.765L251.802 37.7011L259.783 23.926L259.82 23.9883L267.823 37.7634ZM265.709 37.6791H267.677L259.783 24.0909L251.908 37.6791H253.858L256.558 32.9922H262.99L263.001 33.0142L265.709 37.6791ZM257.475 31.4164L257.511 31.3541L259.783 27.4147L259.82 27.477L262.074 31.3981L257.475 31.4164ZM259.783 27.5833L257.617 31.3358L261.931 31.3175L259.783 27.5833Z" fill="white"/>
<path d="M292.592 25.7439H286.516V37.7233H284.721L284.739 25.7439H278.663V23.9885H292.588V25.7439H292.592Z" fill="white"/>
<path d="M286.56 37.7634H284.684V37.7231L284.702 25.7876H278.626V23.948H292.636V25.7876H286.56V37.7634ZM284.765 37.6791H286.476V25.6997H292.552V24.0286H278.707V25.6997H284.783V25.74L284.765 37.6791Z" fill="white"/>
<path d="M316.569 29.4671C316.569 32.8238 315.931 37.7233 310.01 37.7233C304.088 37.7233 303.49 32.8238 303.49 29.4671V23.9885H305.286V29.4671C305.286 31.0868 305.48 33.8829 306.906 35.0592C307.774 35.7738 308.72 36.023 310.031 36.023C311.325 36.023 312.249 35.7738 313.157 35.0409C314.565 33.8829 314.777 31.0685 314.777 29.4671V23.9885H316.573V29.4671H316.569Z" fill="white"/>
<path d="M310.01 37.7634C307.386 37.7634 305.531 36.7923 304.491 34.8721C303.556 33.1424 303.446 30.9583 303.446 29.4668V23.948H305.323V29.4668C305.323 31.4017 305.601 33.9339 306.928 35.0297C307.752 35.7076 308.65 35.9861 310.024 35.9861C311.369 35.9861 312.267 35.7039 313.124 35.0113C314.521 33.8643 314.73 31.0463 314.73 29.4705V23.9517H316.606V29.4705C316.606 30.9583 316.496 33.1351 315.543 34.8757C314.499 36.7923 312.637 37.7634 310.01 37.7634ZM303.534 24.0286V29.4632C303.534 32.9885 304.205 37.6755 310.013 37.6755C312.604 37.6755 314.444 36.719 315.477 34.8281C316.423 33.1021 316.529 30.94 316.529 29.4632V24.0286H314.817V29.4632C314.817 31.0536 314.605 33.901 313.183 35.07C312.311 35.7736 311.398 36.0631 310.032 36.0631C308.635 36.0631 307.723 35.7809 306.88 35.0883C305.528 33.9743 305.246 31.4127 305.246 29.4632V24.0286H303.534Z" fill="white"/>
<path d="M334.471 35.6015L329.3 27.7887V37.7233H327.486V23.9885H328.992L335.086 33.3258L341.103 23.9885H342.533V37.7233H340.759V27.7887L335.724 35.6382L334.471 35.6015Z" fill="white"/>
<path d="M342.573 37.7634H340.715V27.9314L335.746 35.682L334.449 35.6416L334.438 35.6233L329.344 27.9277V37.7634H327.446V23.948H329.014L329.025 23.9663L335.086 33.2487L341.082 23.948H342.573V37.7634ZM340.8 37.6791H342.493V24.0286H341.129L335.09 33.3989L335.053 33.344L328.97 24.0286H327.53V37.6791H329.26V27.6492L329.337 27.7665L334.493 35.561L335.702 35.5977L340.8 27.6455V37.6791Z" fill="white"/>
<path d="M372.296 25.7622V29.7346H380.765V31.4899H372.296V37.7197H370.5V24.0068H383.403V25.7622H372.296Z" fill="white"/>
<path d="M372.337 37.7637H370.46V23.9666H383.448V25.8062H372.337V29.6979H380.806V31.5376H372.337V37.7637ZM370.541 37.6794H372.252V31.4496H380.721V29.7786H372.252V25.7219H383.363V24.0508H370.541V37.6794Z" fill="white"/>
<path d="M394.324 30.8559C394.324 26.7479 396.31 23.9885 402.155 23.9885C408.059 23.9885 409.987 26.7076 409.987 30.8559C409.987 34.9822 408 37.76 402.155 37.76C396.27 37.76 394.324 35.0225 394.324 30.8559ZM408.191 30.8559C408.191 27.4405 406.784 25.7255 402.152 25.7255C397.542 25.7255 396.116 27.4405 396.116 30.8559C396.116 34.2713 397.523 36.0047 402.152 36.0047C406.765 36.0047 408.191 34.2493 408.191 30.8559Z" fill="white"/>
<path d="M402.155 37.8037C399.315 37.8037 397.303 37.1808 396.006 35.9018C394.848 34.7585 394.284 33.1094 394.284 30.8557C394.284 26.2054 396.86 23.948 402.155 23.948C407.527 23.948 410.027 26.1431 410.027 30.8557C410.027 35.528 407.45 37.8037 402.155 37.8037ZM402.155 24.0286C396.915 24.0286 394.364 26.2603 394.364 30.852C394.364 35.5354 396.838 37.7158 402.155 37.7158C407.396 37.7158 409.946 35.4694 409.946 30.852C409.942 26.198 407.469 24.0286 402.155 24.0286ZM402.155 36.0484C399.854 36.0484 398.337 35.6343 397.373 34.7438C396.49 33.9266 396.076 32.6917 396.076 30.8594C396.076 29.0308 396.49 27.7994 397.38 26.9823C398.344 26.0991 399.861 25.685 402.155 25.685C404.457 25.685 405.977 26.0954 406.937 26.9823C407.821 27.7958 408.235 29.0271 408.235 30.8594C408.235 34.5423 406.472 36.0484 402.155 36.0484ZM402.155 25.7656C397.842 25.7656 396.16 27.1911 396.16 30.8557C396.16 34.5313 397.842 35.9641 402.155 35.9641C406.413 35.9641 408.15 34.4836 408.15 30.8557C408.15 27.1911 406.468 25.7656 402.155 25.7656Z" fill="white"/>
<path d="M433.96 29.4671C433.96 32.8238 433.323 37.7233 427.401 37.7233C421.479 37.7233 420.881 32.8238 420.881 29.4671V23.9885H422.677V29.4671C422.677 31.0868 422.871 33.8829 424.297 35.0592C425.165 35.7738 426.111 36.023 427.423 36.023C428.716 36.023 429.64 35.7738 430.548 35.0409C431.956 33.8829 432.168 31.0685 432.168 29.4671V23.9885H433.964V29.4671H433.96Z" fill="white"/>
<path d="M427.404 37.7634C424.78 37.7634 422.926 36.7923 421.885 34.8721C420.951 33.1424 420.841 30.9583 420.841 29.4668V23.948H422.717V29.4668C422.717 31.4017 422.996 33.9339 424.322 35.0297C425.147 35.7076 426.045 35.9861 427.419 35.9861C428.764 35.9861 429.661 35.7039 430.519 35.0113C431.915 33.8643 432.124 31.0463 432.124 29.4705V23.9517H434V29.4705C434 30.9583 433.89 33.1351 432.938 34.8757C431.89 36.7923 430.028 37.7634 427.404 37.7634ZM420.925 24.0286V29.4632C420.925 32.9885 421.596 37.6755 427.404 37.6755C429.995 37.6755 431.835 36.719 432.868 34.8281C433.813 33.1021 433.92 30.94 433.92 29.4632V24.0286H432.208V29.4632C432.208 31.0536 431.996 33.901 430.574 35.07C429.702 35.7736 428.789 36.0631 427.422 36.0631C426.026 36.0631 425.114 35.7809 424.271 35.0883C422.919 33.9743 422.636 31.4127 422.636 29.4632V24.0286H420.925Z" fill="white"/>
<path d="M446.672 26.8432L446.654 37.7233H444.88V23.9885H446.269L456.918 34.8686V23.9885H458.714V37.7233H457.307L446.672 26.8432Z" fill="white"/>
<path d="M458.751 37.7634H457.285L457.274 37.7524L446.717 26.9456L446.698 37.7634H444.84V23.948H446.288L446.299 23.959L456.875 34.7658V23.948H458.751V37.7634ZM457.318 37.6791H458.667V24.0286H456.955V34.9674L456.882 34.8941L446.248 24.0286H444.917V37.6791H446.607L446.625 26.7404L446.695 26.8137L457.318 37.6791Z" fill="white"/>
<path d="M476.088 23.9885C478.595 23.9885 481.024 24.6042 482.417 26.3412C483.458 27.6348 483.747 29.4084 483.747 30.8743C483.747 34.8467 481.797 37.7233 476.088 37.7233H469.627V23.9885H476.088ZM476.088 35.9863C477.961 35.9863 479.965 35.6016 480.969 34.3483C481.761 33.3845 481.915 31.9956 481.915 30.8559C481.915 29.7162 481.761 28.3274 480.969 27.3856C479.965 26.114 477.961 25.7255 476.088 25.7255H471.419V35.9863H476.088Z" fill="white"/>
<path d="M476.088 37.7634H469.583V23.948H476.088C478.126 23.948 480.881 24.3584 482.446 26.3153C483.553 27.6895 483.787 29.5548 483.787 30.874C483.787 35.4438 481.197 37.7634 476.088 37.7634ZM469.668 37.6791H476.088C481.142 37.6791 483.703 35.3888 483.703 30.874C483.703 29.5658 483.472 27.7225 482.38 26.3666C480.834 24.4354 478.104 24.0286 476.084 24.0286H469.664V37.6791H469.668ZM476.088 36.0264H471.379V25.6813H476.088C477.726 25.6813 479.91 25.9708 481.002 27.356C481.644 28.1219 481.955 29.2689 481.955 30.8557C481.955 32.4388 481.644 33.5895 481.002 34.3737C479.907 35.7406 477.726 36.0264 476.088 36.0264ZM471.463 35.9421H476.088C477.708 35.9421 479.863 35.66 480.936 34.3187C481.567 33.5492 481.871 32.4168 481.871 30.852C481.871 29.2873 481.567 28.1586 480.936 27.4074C479.866 26.0478 477.708 25.762 476.088 25.762H471.463V35.9421Z" fill="white"/>
<path d="M499.387 33.0363L496.686 37.7233H494.642L502.59 24.0105L510.557 37.7233H508.494L505.775 33.0363H499.387ZM502.59 27.4992L500.351 31.3763L504.807 31.358L502.59 27.4992Z" fill="white"/>
<path d="M510.63 37.7634H508.468L508.457 37.7415L505.749 33.0764H499.413L496.712 37.7634H494.572L494.609 37.7011L502.59 23.926L502.627 23.9883L510.63 37.7634ZM508.516 37.6791H510.484L502.59 24.0909L494.715 37.6791H496.665L499.366 32.9922H505.797L505.808 33.0142L508.516 37.6791ZM500.282 31.4164L500.318 31.3541L502.59 27.4147L502.627 27.477L504.881 31.3981L500.282 31.4164ZM502.59 27.5833L500.425 31.3358L504.738 31.3175L502.59 27.5833Z" fill="white"/>
<path d="M535.403 25.7439H529.327V37.7233H527.531L527.549 25.7439H521.474V23.9885H535.399V25.7439H535.403Z" fill="white"/>
<path d="M529.367 37.7634H527.491V37.7231L527.509 25.7876H521.434V23.948H535.443V25.7876H529.367V37.7634ZM527.572 37.6791H529.283V25.6997H535.359V24.0286H521.514V25.6997H527.59V25.74L527.572 37.6791Z" fill="white"/>
<path d="M546.301 37.7233V23.9885H548.093V37.7233H546.301Z" fill="white"/>
<path d="M548.134 37.7634H546.257V23.948H548.134V37.7634ZM546.342 37.6791H548.053V24.0286H546.342V37.6791Z" fill="white"/>
<path d="M558.992 30.8559C558.992 26.7479 560.978 23.9885 566.823 23.9885C572.727 23.9885 574.654 26.7076 574.654 30.8559C574.654 34.9822 572.668 37.76 566.823 37.76C560.941 37.76 558.992 35.0225 558.992 30.8559ZM572.862 30.8559C572.862 27.4405 571.455 25.7255 566.823 25.7255C562.213 25.7255 560.787 27.4405 560.787 30.8559C560.787 34.2713 562.195 36.0047 566.823 36.0047C571.433 36.0047 572.862 34.2493 572.862 30.8559Z" fill="white"/>
<path d="M566.823 37.8037C563.983 37.8037 561.971 37.1808 560.674 35.9018C559.516 34.7585 558.951 33.1094 558.951 30.8557C558.951 26.2054 561.527 23.948 566.823 23.948C572.195 23.948 574.694 26.1431 574.694 30.8557C574.698 35.528 572.122 37.8037 566.823 37.8037ZM566.823 24.0286C561.582 24.0286 559.032 26.2603 559.032 30.852C559.032 35.5354 561.505 37.7158 566.823 37.7158C572.063 37.7158 574.614 35.4694 574.614 30.852C574.614 26.198 572.136 24.0286 566.823 24.0286ZM566.823 36.0484C564.521 36.0484 563.004 35.6343 562.04 34.7438C561.157 33.9266 560.743 32.6917 560.743 30.8594C560.743 29.0308 561.157 27.7994 562.048 26.9823C563.012 26.0991 564.529 25.685 566.823 25.685C569.124 25.685 570.645 26.0954 571.605 26.9823C572.488 27.7958 572.902 29.0271 572.902 30.8594C572.902 34.5423 571.14 36.0484 566.823 36.0484ZM566.823 25.7656C562.51 25.7656 560.827 27.1911 560.827 30.8557C560.827 34.5313 562.51 35.9641 566.823 35.9641C571.081 35.9641 572.818 34.4836 572.818 30.8557C572.818 27.1911 571.136 25.7656 566.823 25.7656Z" fill="white"/>
<path d="M587.348 26.8432L587.33 37.7233H585.556V23.9885H586.945L597.594 34.8686V23.9885H599.39V37.7233H597.983L587.348 26.8432Z" fill="white"/>
<path d="M599.423 37.7634H597.957L597.946 37.7524L587.388 26.9456L587.37 37.7634H585.512V23.948H586.96L586.971 23.959L597.547 34.7658V23.948H599.423V37.7634ZM597.994 37.6791H599.342V24.0286H597.631V34.9674L597.558 34.8941L586.923 24.0286H585.593V37.6791H587.282L587.3 26.7404L587.37 26.8137L597.994 37.6791Z" fill="white"/>
</svg>
